<svg width="48" height="48" viewBox="0 0 48 48" fill="none" xmlns="http://www.w3.org/2000/svg">
<path d="M14.582 15.1626H33.1867H14.582ZM14.582 20.744H33.1867H14.582ZM24.8146 32.0928C24.7216 31.5347 24.2564 31.0696 23.6983 30.9766C23.6983 30.8835 23.6053 30.8835 23.6053 30.7905C23.7913 30.2324 23.6983 29.6742 23.2332 29.3021C22.7681 28.93 22.1169 28.93 21.6518 29.2091C21.5588 29.2091 21.5588 29.2091 21.4658 29.1161C21.2797 28.5579 20.8146 28.1859 20.1634 28.1859C19.6053 28.1859 19.0471 28.5579 18.8611 29.1161C18.7681 29.1161 18.7681 29.1161 18.6751 29.2091C18.2099 28.93 17.5588 28.93 17.0937 29.3021C16.6285 29.6742 16.5355 30.2324 16.7216 30.7905C16.7216 30.8835 16.6285 30.8835 16.6285 30.9766C16.0704 31.0696 15.6053 31.5347 15.5123 32.0928C15.4192 32.651 15.6983 33.2091 16.1634 33.4882C16.1634 33.5812 16.1634 33.6742 16.1634 33.7672C15.7913 34.2324 15.7913 34.7905 16.0704 35.2556C16.3495 35.7207 16.9076 35.9998 17.4658 35.9068C17.5588 35.9998 17.6518 35.9998 17.6518 36.0928C17.6518 36.651 18.0239 37.1161 18.489 37.3021C19.0471 37.4882 19.6053 37.3021 19.9774 36.93C20.0704 36.93 20.0704 36.93 20.1634 36.93C20.2564 36.93 20.2565 36.93 20.3495 36.93C20.6285 37.2091 21.0006 37.3952 21.3727 37.3952C21.5588 37.3952 21.6518 37.3952 21.8378 37.3021C22.396 37.1161 22.6751 36.651 22.6751 36.0928C22.7681 35.9998 22.8611 35.9998 22.8611 35.9068C23.4192 35.9998 23.9774 35.7207 24.2564 35.2556C24.5355 34.7905 24.4425 34.1393 24.1634 33.7672C24.1634 33.6742 24.1634 33.5812 24.1634 33.4882C24.6285 33.2091 24.9076 32.651 24.8146 32.0928Z" stroke="#1A1C23" stroke-width="2" stroke-miterlimit="10" stroke-linejoin="round"/>
<path d="M14.5814 41.2093H9V4H38.7674V41.2093H25.7442" stroke="#1A1C23" stroke-width="2" stroke-miterlimit="10" stroke-linejoin="round"/>
<path d="M23.8833 35.6279V44L20.1623 41.2093L16.4414 44V35.6279" stroke="#1A1C23" stroke-width="2" stroke-miterlimit="10" stroke-linejoin="round"/>
</svg>
